<?xml version="1.0" encoding="utf-8"?>
<!-- Generator: Adobe Illustrator 27.6.1, SVG Export Plug-In . SVG Version: 6.00 Build 0)  -->
<svg version="1.1" xmlns="http://www.w3.org/2000/svg" xmlns:xlink="http://www.w3.org/1999/xlink" x="0px" y="0px"
	 viewBox="0 0 500 500" style="enable-background:new 0 0 500 500;" xml:space="preserve">
<style type="text/css">
	.st0{fill:#FFFFFF;stroke:#FFFFFF;stroke-miterlimit:10;}
</style>
<g id="Layer_1">
</g>
<g id="Layer_2">
	<path class="st0" d="M187,333l-88,22c0,0-69.5-101.5-42.5-242.5c0,0,16.79-73.69,86.89-49.35S207.5,225.5,207.5,225.5s-3,23-7,25
		S177.5,297.5,187,333z"/>
	<path class="st0" d="M193.5,364.5l-87,29c0,0,5,101,67,107c0,0,60,0,44-82C217.5,418.5,212.5,392.5,193.5,364.5z"/>
	<path class="st0" d="M308.3,274.64l88,22c0,0,69.5-101.5,42.5-242.5c0,0-16.79-73.69-86.89-49.35S287.8,167.14,287.8,167.14
		s3,23,7,25S317.8,239.14,308.3,274.64z"/>
	<path class="st0" d="M301.8,306.14l87,29c0,0-5,101-67,107c0,0-60,0-44-82C277.8,360.14,282.8,334.14,301.8,306.14z"/>
</g>
</svg>
